<?xml version="1.0" standalone="no"?>
<!DOCTYPE svg PUBLIC "-//W3C//DTD SVG 20010904//EN"
 "http://www.w3.org/TR/2001/REC-SVG-20010904/DTD/svg10.dtd">
<svg version="1.0" xmlns="http://www.w3.org/2000/svg"
 width="500.000000pt" height="500.000000pt" viewBox="0 0 500.000000 500.000000"
 preserveAspectRatio="xMidYMid meet">

<g transform="translate(0.000000,500.000000) scale(0.100000,-0.100000)"
fill="#000000" stroke="none">
<path d="M1020 3355 l0 -565 110 0 110 0 2 223 3 222 90 6 c105 7 145 24 180
77 42 64 58 151 52 287 -5 141 -24 202 -76 254 -53 53 -92 61 -295 61 l-176 0
0 -565z m290 355 c26 -14 40 -63 40 -137 0 -79 -19 -119 -60 -128 -16 -4 -34
-4 -40 0 -11 7 -14 257 -3 268 9 10 42 8 63 -3z"/>
<path d="M1672 3368 c-29 -304 -53 -559 -52 -566 0 -10 25 -12 108 -10 l107 3
2 55 c2 30 5 70 8 88 l6 32 68 0 68 0 7 -90 8 -90 104 0 104 0 0 29 c0 16 -22
262 -50 547 -27 286 -50 527 -50 537 0 16 -16 17 -193 17 l-192 0 -53 -552z
m267 122 c12 -129 23 -259 27 -287 l5 -53 -50 0 -51 0 0 43 c0 56 30 486 36
516 3 13 7 22 9 19 2 -2 13 -109 24 -238z"/>
<path d="M2280 3355 l0 -565 110 0 110 0 2 223 3 222 90 6 c105 7 145 24 180
77 42 64 58 151 52 287 -5 141 -24 202 -76 254 -53 53 -92 61 -295 61 l-176 0
0 -565z m290 355 c26 -14 40 -63 40 -137 0 -79 -19 -119 -60 -128 -16 -4 -34
-4 -40 0 -11 7 -14 257 -3 268 9 10 42 8 63 -3z"/>
<path d="M2910 3355 l0 -565 230 0 230 0 0 110 0 109 -117 3 -118 3 -3 128 -3
127 111 0 110 0 0 105 0 104 -107 3 -108 3 -3 107 -3 107 113 3 113 3 3 108 3
107 -226 0 -225 0 0 -565z"/>
<path d="M3450 3355 l0 -565 115 0 115 0 0 261 0 262 32 -7 c18 -3 37 -11 43
-17 6 -6 11 -104 13 -254 l3 -245 110 0 109 0 0 233 c0 130 -5 248 -11 269 -6
23 -23 49 -44 65 l-34 27 29 18 c55 33 65 67 65 228 0 136 -2 149 -25 195 -19
38 -36 56 -70 73 -42 21 -57 22 -247 22 l-203 0 0 -565z m318 343 c7 -7 12
-41 12 -83 0 -87 -16 -115 -66 -115 l-34 0 0 105 0 105 38 0 c21 0 43 -5 50
-12z"/>
<path d="M860 1740 l0 -810 1640 0 1640 0 0 810 0 810 -1640 0 -1640 0 0 -810z
m850 568 c82 -42 116 -132 108 -283 -5 -93 -27 -147 -69 -172 -16 -10 -29 -20
-29 -23 0 -3 14 -13 31 -22 49 -29 72 -94 77 -221 8 -218 -41 -336 -157 -375
-21 -8 -105 -12 -217 -12 l-184 0 0 565 0 565 198 0 c185 0 201 -1 242 -22z
m664 -10 c3 -18 26 -253 51 -523 25 -269 48 -509 51 -532 l6 -43 -110 0 -110
0 -7 90 -7 90 -68 0 -68 0 -7 -90 -7 -90 -109 0 c-60 0 -109 3 -109 8 -1 4 23
258 52 565 l53 557 192 0 192 0 5 -32z m415 -20 c6 -29 29 -141 50 -248 l39
-195 1 248 1 247 110 0 110 0 0 -565 0 -565 -110 0 c-60 0 -110 1 -110 3 -1 1
-25 119 -54 262 l-54 260 -1 -262 -1 -263 -115 0 -115 0 0 565 0 565 119 0
120 0 10 -52z m643 -155 l3 -208 43 190 c24 105 46 198 48 208 5 15 19 17 120
17 114 0 114 0 109 -22 -3 -13 -30 -123 -60 -246 -30 -123 -55 -235 -55 -250
0 -15 34 -159 74 -319 l74 -293 -118 0 -118 0 -25 108 c-14 59 -40 174 -58
257 l-34 149 -3 -257 -2 -257 -115 0 -115 0 0 565 0 565 115 0 115 0 2 -207z"/>
<path d="M1500 2035 l0 -125 35 0 c47 0 55 19 55 134 0 104 -7 116 -64 116
l-26 0 0 -125z"/>
<path d="M1500 1565 l0 -165 29 0 c16 0 39 9 52 19 21 17 24 30 27 100 7 152
-15 211 -78 211 l-30 0 0 -165z"/>
<path d="M2170 2129 c0 -8 -9 -131 -20 -274 -11 -143 -20 -268 -20 -277 0 -15
9 -18 50 -18 28 0 50 1 50 3 0 32 -52 572 -55 575 -3 3 -5 -1 -5 -9z"/>
</g>
</svg>
